<?xml version="1.0" encoding="iso-8859-1"?>
<!-- Generator: Adobe Illustrator 27.0.0, SVG Export Plug-In . SVG Version: 6.00 Build 0)  -->
<svg version="1.1" id="Layer_1" xmlns="http://www.w3.org/2000/svg" xmlns:xlink="http://www.w3.org/1999/xlink" x="0px" y="0px"
	 viewBox="0 0 500 500" style="enable-background:new 0 0 500 500;" xml:space="preserve">
<g id="watermark_1_">
	<g>
		<g id="watermark" style="opacity:0.61;">
			<g>
				<g>
					<g>
						<g>
							<polygon style="fill:#FFFFFF;" points="213.765,461.172 208.204,474.017 205.268,474.017 199.726,461.172 202.938,461.172 
								206.846,470.347 210.81,461.172 							"/>
						</g>
						<g>
							<path style="fill:#FFFFFF;" d="M223.507,469.741h-7.469c0.275,1.23,1.321,1.982,2.826,1.982c1.046,0,1.798-0.312,2.477-0.954
								l1.523,1.651c-0.917,1.046-2.294,1.597-4.074,1.597c-3.413,0-5.634-2.147-5.634-5.083c0-2.954,2.257-5.083,5.267-5.083
								c2.899,0,5.138,1.945,5.138,5.12C223.562,469.191,223.526,469.503,223.507,469.741 M216.002,468.071h4.863
								c-0.202-1.248-1.138-2.055-2.422-2.055C217.139,466.016,216.204,466.805,216.002,468.071"/>
						</g>
						<g>
							<path style="fill:#FFFFFF;" d="M224.735,468.934c0-2.973,2.294-5.083,5.505-5.083c2.074,0,3.707,0.899,4.423,2.514
								l-2.22,1.193c-0.532-0.936-1.321-1.358-2.221-1.358c-1.45,0-2.587,1.009-2.587,2.734c0,1.725,1.138,2.734,2.587,2.734
								c0.899,0,1.688-0.404,2.221-1.358l2.22,1.211c-0.716,1.578-2.349,2.495-4.423,2.495
								C227.029,474.017,224.735,471.907,224.735,468.934"/>
						</g>
						<g>
							<path style="fill:#FFFFFF;" d="M242.828,473.393c-0.587,0.422-1.45,0.624-2.331,0.624c-2.33,0-3.688-1.193-3.688-3.542
								v-4.055h-1.523v-2.202h1.523v-2.404h2.863v2.404h2.459v2.202h-2.459v4.019c0,0.844,0.458,1.303,1.229,1.303
								c0.422,0,0.844-0.128,1.156-0.367L242.828,473.393z"/>
						</g>
					</g>
					<g>
						<path style="fill:#FFFFFF;" d="M262.474,463.997v2.643c-0.238-0.018-0.422-0.037-0.642-0.037
							c-1.578,0-2.624,0.862-2.624,2.753v4.661h-2.863v-9.873h2.734v1.303C259.776,464.493,260.951,463.997,262.474,463.997"/>
					</g>
					<g>
						<path style="fill:#FFFFFF;" d="M263.299,472.53l1.009-2.239c1.083,0.789,2.697,1.339,4.239,1.339
							c1.762,0,2.477-0.587,2.477-1.376c0-2.404-7.469-0.752-7.469-5.524c0-2.184,1.762-4,5.413-4c1.615,0,3.267,0.385,4.459,1.138
							l-0.918,2.257c-1.193-0.679-2.422-1.009-3.56-1.009c-1.761,0-2.44,0.66-2.44,1.468c0,2.367,7.468,0.734,7.468,5.45
							c0,2.147-1.78,3.982-5.45,3.982C266.492,474.017,264.437,473.411,263.299,472.53"/>
					</g>
					<g>
						<path style="fill:#FFFFFF;" d="M285.428,469.741h-7.469c0.275,1.23,1.321,1.982,2.826,1.982c1.046,0,1.798-0.312,2.477-0.954
							l1.523,1.651c-0.918,1.046-2.294,1.597-4.074,1.597c-3.413,0-5.634-2.147-5.634-5.083c0-2.954,2.257-5.083,5.267-5.083
							c2.9,0,5.138,1.945,5.138,5.12C285.484,469.191,285.447,469.503,285.428,469.741 M277.923,468.071h4.863
							c-0.202-1.248-1.138-2.055-2.422-2.055C279.061,466.016,278.125,466.805,277.923,468.071"/>
					</g>
					<g>
						<path style="fill:#FFFFFF;" d="M297.007,469.741h-7.469c0.275,1.23,1.321,1.982,2.826,1.982c1.046,0,1.798-0.312,2.477-0.954
							l1.523,1.651c-0.918,1.046-2.294,1.597-4.074,1.597c-3.413,0-5.634-2.147-5.634-5.083c0-2.954,2.257-5.083,5.267-5.083
							c2.899,0,5.138,1.945,5.138,5.12C297.062,469.191,297.025,469.503,297.007,469.741 M289.501,468.071h4.863
							c-0.202-1.248-1.138-2.055-2.422-2.055C290.639,466.016,289.703,466.805,289.501,468.071"/>
					</g>
					<g>
						<polygon style="fill:#FFFFFF;" points="303.208,470.145 301.831,471.503 301.831,474.017 298.969,474.017 298.969,460.401 
							301.831,460.401 301.831,468.108 306.016,464.144 309.429,464.144 305.318,468.328 309.796,474.017 306.327,474.017 						"/>
					</g>
					<g>
						<path style="fill:#FFFFFF;" d="M256.601,475.359L256.601,475.359l-2.86-2.86c-0.435,0.508-0.953,0.943-1.534,1.284
							c-0.092,0.069-0.186,0.136-0.283,0.199l3.027,3.027c0.456,0.456,1.195,0.456,1.65,0
							C257.057,476.554,257.057,475.815,256.601,475.359"/>
					</g>
					<g>
						<path style="fill:#FFFFFF;" d="M249.984,463.244c0.221-0.173,0.495-0.281,0.797-0.281c0.042,0,0.083,0.002,0.124,0.006
							c-0.214-0.156-0.478-0.249-0.764-0.249c-0.395,0-0.744,0.18-0.981,0.458c-0.051,0-0.1,0.006-0.151,0.008
							c0.039-0.077,0.064-0.162,0.064-0.255c0-0.234-0.143-0.434-0.346-0.519c0.087,0.126,0.138,0.279,0.138,0.445
							c0,0.122-0.031,0.237-0.081,0.341c-2.811,0.201-5.03,2.539-5.03,5.4c0,2.993,2.426,5.42,5.42,5.42
							c2.993,0,5.42-2.426,5.42-5.42C254.595,465.879,252.593,463.635,249.984,463.244 M247.983,464.656
							c0.435,0,0.844,0.112,1.199,0.309c0.374-0.245,0.82-0.387,1.299-0.387c0.711,0,1.348,0.312,1.784,0.806
							c-0.435-0.379-1.004-0.61-1.627-0.61c-0.449,0-0.87,0.12-1.234,0.329c-0.079,0.046-0.156,0.096-0.229,0.15
							c-0.065-0.048-0.133-0.093-0.204-0.134c-0.369-0.219-0.8-0.344-1.26-0.344c-0.3,0-0.588,0.054-0.854,0.152
							C247.196,464.754,247.578,464.656,247.983,464.656 M251.772,469.098c0.115,0.305,0.181,0.634,0.181,0.979
							c0,1.534-1.244,2.777-2.778,2.777c-1.534,0-2.777-1.243-2.777-2.777c0-0.345,0.066-0.674,0.181-0.979
							c-0.62-0.382-1.035-1.064-1.035-1.846c0-1.197,0.971-2.168,2.168-2.168c0.565,0,1.078,0.218,1.463,0.572
							c0.386-0.354,0.899-0.572,1.464-0.572c1.197,0,2.168,0.971,2.168,2.168C252.807,468.034,252.392,468.716,251.772,469.098"/>
					</g>
					<g>
						<path style="fill:#FFFFFF;" d="M251.666,467.061c0,0.497-0.404,0.901-0.901,0.901c-0.497,0-0.901-0.404-0.901-0.901
							s0.404-0.901,0.901-0.901c0.101,0,0.197,0.017,0.287,0.047c-0.03,0.062-0.045,0.132-0.045,0.204
							c0,0.273,0.221,0.494,0.494,0.494c0.05,0,0.099-0.008,0.146-0.022C251.66,466.941,251.666,467,251.666,467.061"/>
					</g>
					<g>
						<path style="fill:#FFFFFF;" d="M248.255,467.061c0,0.376-0.305,0.681-0.681,0.681c-0.376,0-0.681-0.305-0.681-0.681
							s0.305-0.681,0.681-0.681c0.076,0,0.149,0.013,0.217,0.035c-0.023,0.047-0.034,0.1-0.034,0.155
							c0,0.206,0.167,0.374,0.374,0.374c0.038,0,0.075-0.006,0.11-0.017C248.25,466.97,248.255,467.015,248.255,467.061"/>
					</g>
					<g>
						<g>
							<g>
								<rect x="242.908" y="467.83" style="fill:#FFFFFF;" width="0.616" height="0.616"/>
							</g>
							<g>
								<rect x="254.827" y="467.83" style="fill:#FFFFFF;" width="0.616" height="0.616"/>
							</g>
							<g>
								<path style="fill:#FFFFFF;" d="M255.205,468.082h-0.14c0-3.248-2.642-5.89-5.89-5.89c-3.248,0-5.89,2.642-5.89,5.89h-0.14
									c0-1.611,0.627-3.125,1.766-4.264c1.139-1.139,2.653-1.766,4.264-1.766c1.611,0,3.125,0.627,4.264,1.766
									C254.578,464.957,255.205,466.471,255.205,468.082"/>
							</g>
						</g>
						<g>
							<rect x="248.868" y="461.814" style="fill:#FFFFFF;" width="0.616" height="0.616"/>
						</g>
						<g>
							<rect x="244.95" y="462.052" style="fill:#FFFFFF;" width="8.45" height="0.14"/>
						</g>
						<g>
							<path style="fill:#FFFFFF;" d="M245.174,462.15c0,0.108-0.088,0.196-0.196,0.196c-0.108,0-0.196-0.088-0.196-0.196
								c0-0.108,0.088-0.196,0.196-0.196C245.086,461.954,245.174,462.042,245.174,462.15"/>
						</g>
						<g>
							<path style="fill:#FFFFFF;" d="M253.596,462.15c0,0.108-0.088,0.196-0.196,0.196c-0.108,0-0.196-0.088-0.196-0.196
								c0-0.108,0.088-0.196,0.196-0.196C253.509,461.954,253.596,462.042,253.596,462.15"/>
						</g>
					</g>
				</g>
				<g>
					<path style="fill:#FFFFFF;" d="M314.356,473.409c0,1.559-2.364,1.559-2.364,0C311.993,471.851,314.356,471.851,314.356,473.409
						z"/>
				</g>
				<g>
					<g>
						<g>
							<path style="fill:#FFFFFF;" d="M161.739,466.549l1.772,6.088l1.855-6.088h2.215l-2.823,8.14h-2.33l-0.837-2.396l-0.722-2.708
								l-0.722,2.708l-0.837,2.396h-2.33l-2.839-8.14h2.231l1.855,6.088l1.756-6.088H161.739z"/>
						</g>
						<g>
							<path style="fill:#FFFFFF;" d="M176.713,466.549l1.772,6.088l1.855-6.088h2.215l-2.823,8.14h-2.33l-0.837-2.396l-0.722-2.708
								l-0.722,2.708l-0.837,2.396h-2.33l-2.839-8.14h2.231l1.855,6.088l1.756-6.088H176.713z"/>
						</g>
						<g>
							<path style="fill:#FFFFFF;" d="M191.687,466.549l1.772,6.088l1.855-6.088h2.215l-2.823,8.14h-2.33l-0.837-2.396l-0.722-2.708
								l-0.722,2.708l-0.837,2.396h-2.33l-2.839-8.14h2.231l1.855,6.088l1.756-6.088H191.687z"/>
						</g>
					</g>
					<g>
						<path style="fill:#FFFFFF;" d="M200.908,473.52c0,1.559-2.364,1.559-2.364,0C198.545,471.962,200.908,471.962,200.908,473.52z
							"/>
					</g>
					<g>
						<path style="fill:#FFFFFF;" d="M322.71,473.409c-0.935,0.919-1.919,1.28-3.117,1.28c-2.346,0-4.3-1.411-4.3-4.282
							s1.953-4.284,4.3-4.284c1.149,0,2.035,0.329,2.921,1.199l-1.264,1.329c-0.476-0.428-1.066-0.64-1.623-0.64
							c-1.346,0-2.33,0.985-2.33,2.396c0,1.542,1.05,2.362,2.297,2.362c0.64,0,1.28-0.18,1.772-0.672L322.71,473.409z"/>
					</g>
					<g>
						<path style="fill:#FFFFFF;" d="M331.805,470.472c0,2.33-1.591,4.217-4.217,4.217c-2.626,0-4.201-1.887-4.201-4.217
							c0-2.314,1.609-4.217,4.185-4.217C330.149,466.255,331.805,468.158,331.805,470.472z M325.389,470.472
							c0,1.231,0.739,2.38,2.199,2.38c1.46,0,2.199-1.149,2.199-2.38c0-1.215-0.854-2.396-2.199-2.396
							C326.144,468.077,325.389,469.258,325.389,470.472z"/>
					</g>
					<g>
						<path style="fill:#FFFFFF;" d="M338.572,474.689v-4.332c0-1.068-0.559-2.035-1.658-2.035c-1.082,0-1.722,0.967-1.722,2.035
							v4.332h-2.003v-8.107h1.855l0.148,0.985c0.426-0.82,1.362-1.116,2.133-1.116c0.969,0,1.937,0.394,2.396,1.51
							c0.723-1.149,1.658-1.478,2.708-1.478c2.297,0,3.43,1.412,3.43,3.84v4.365h-2.003v-4.365c0-1.066-0.442-1.97-1.526-1.97
							c-1.082,0-1.756,0.935-1.756,2.003v4.332H338.572z"/>
					</g>
				</g>
			</g>
		</g>
		<g style="opacity:0.61;">
			<g>
				<g>
					<path style="fill:#FFFFFF;" d="M345.988,431.299c-0.006-1.224-0.959-2.121-2.189-2.14c-0.924-0.014-0.832,0.12-0.834-0.867
						c-0.003-1.097-0.007-2.194,0.003-3.292c0.003-0.379-0.112-0.691-0.362-0.976c-2.342-2.668-4.678-5.342-7.019-8.011
						c-0.12-0.137-0.275-0.244-0.414-0.366c-6.214,0-12.427,0-18.641,0c-0.794,0.293-1.14,0.868-1.138,1.709
						c0.01,3.748,0.004,7.496,0.004,11.243c0,0.556-0.003,0.589-0.55,0.551c-1.497-0.102-2.516,0.986-2.497,2.492
						c0.044,3.476,0.013,6.953,0.014,10.429c0.001,1.58,0.867,2.443,2.45,2.449c0.582,0.002,0.582,0.002,0.582,0.6
						c0,2.219-0.001,4.438,0.001,6.657c0.001,1.192,0.58,1.771,1.768,1.771c8.013,0.001,16.027,0.001,24.04,0
						c1.168,0,1.755-0.583,1.757-1.745c0.002-2.256,0-4.512,0.001-6.768c0-0.512,0.002-0.511,0.52-0.515
						c0.271-0.002,0.541,0.008,0.809-0.058c0.996-0.246,1.69-1.044,1.694-2.069C346.003,438.696,346.005,434.997,345.988,431.299z
						 M317.537,417.162c5.337,0,10.674,0,16.01,0c0.548,0,0.554,0.007,0.554,0.561c0.001,2.243-0.001,4.486,0.001,6.73
						c0.001,0.811,0.249,1.059,1.06,1.059c1.91,0.001,3.821,0,5.731,0.001c0.458,0,0.479,0.021,0.481,0.483
						c0.003,0.887,0.002,1.775,0,2.662c-0.001,0.477-0.024,0.498-0.504,0.499c-3.895,0.001-7.79,0-11.684,0
						c-3.882,0-7.765,0-11.647,0c-0.55,0-0.552-0.001-0.552-0.561c-0.001-3.624-0.001-7.247,0-10.871
						C316.987,417.166,316.991,417.162,317.537,417.162z M340.822,451.579c-3.883,0.001-7.766,0-11.65,0c-3.871,0-7.742,0-11.613,0
						c-0.572,0-0.574-0.002-0.574-0.579c-0.001-1.997-0.001-3.994,0.001-5.991c0-0.464,0.023-0.486,0.478-0.487
						c7.803-0.001,15.607-0.001,23.41,0c0.478,0,0.499,0.02,0.499,0.503c0.002,1.997,0.001,3.994,0,5.991
						C341.375,451.574,341.37,451.579,340.822,451.579z"/>
				</g>
				<g>
					<g>
						<rect x="327.418" y="417.053" style="fill:#FFFFFF;" width="1.757" height="1.054"/>
					</g>
					<g>
						<rect x="325.662" y="418.107" style="fill:#FFFFFF;" width="1.757" height="1.054"/>
					</g>
					<g>
						<rect x="327.418" y="419.161" style="fill:#FFFFFF;" width="1.757" height="1.054"/>
					</g>
					<g>
						<rect x="325.662" y="420.215" style="fill:#FFFFFF;" width="1.757" height="1.054"/>
					</g>
					<g>
						<rect x="327.418" y="421.269" style="fill:#FFFFFF;" width="1.757" height="1.054"/>
					</g>
					<g>
						<rect x="325.662" y="422.323" style="fill:#FFFFFF;" width="1.757" height="1.054"/>
					</g>
					<g>
						<rect x="327.418" y="423.378" style="fill:#FFFFFF;" width="1.757" height="1.054"/>
					</g>
					<g>
						<rect x="325.662" y="424.432" style="fill:#FFFFFF;" width="1.757" height="1.054"/>
					</g>
					<g>
						<rect x="327.418" y="425.486" style="fill:#FFFFFF;" width="1.757" height="1.054"/>
					</g>
					<g>
						<rect x="325.662" y="426.54" style="fill:#FFFFFF;" width="1.757" height="1.054"/>
					</g>
					<g>
						<rect x="327.418" y="427.594" style="fill:#FFFFFF;" width="1.757" height="1.054"/>
					</g>
					<g>
						<rect x="325.662" y="428.648" style="fill:#FFFFFF;" width="1.757" height="1.054"/>
					</g>
				</g>
			</g>
			<g>
				<path style="fill:#FFFFFF;" d="M187.637,431.299c-0.006-1.224-0.959-2.121-2.189-2.14c-0.924-0.014-0.832,0.12-0.834-0.867
					c-0.003-1.097-0.007-2.194,0.003-3.292c0.003-0.379-0.112-0.691-0.362-0.976c-2.342-2.668-4.678-5.342-7.019-8.011
					c-0.12-0.137-0.275-0.244-0.414-0.366c-6.214,0-12.427,0-18.641,0c-0.794,0.293-1.14,0.868-1.138,1.709
					c0.01,3.748,0.004,7.496,0.004,11.243c0,0.556-0.003,0.589-0.55,0.551c-1.497-0.102-2.516,0.986-2.497,2.492
					c0.044,3.476,0.013,6.953,0.014,10.429c0.001,1.58,0.867,2.443,2.45,2.449c0.582,0.002,0.582,0.002,0.582,0.6
					c0,2.219-0.001,4.438,0.001,6.657c0.001,1.192,0.58,1.771,1.768,1.771c8.013,0.001,16.027,0.001,24.04,0
					c1.168,0,1.755-0.583,1.757-1.745c0.002-2.256,0-4.512,0.001-6.768c0-0.512,0.002-0.511,0.52-0.515
					c0.271-0.002,0.541,0.008,0.809-0.058c0.996-0.246,1.69-1.044,1.694-2.069C187.652,438.696,187.655,434.997,187.637,431.299z
					 M159.187,417.162c5.337,0,10.674,0,16.01,0c0.548,0,0.554,0.007,0.554,0.561c0.001,2.243-0.001,4.486,0.001,6.73
					c0.001,0.811,0.249,1.059,1.06,1.059c1.91,0.001,3.821,0,5.731,0.001c0.458,0,0.479,0.021,0.481,0.483
					c0.003,0.887,0.002,1.775,0,2.662c-0.001,0.477-0.024,0.498-0.504,0.499c-3.895,0.001-7.79,0-11.684,0
					c-3.882,0-7.765,0-11.647,0c-0.55,0-0.552-0.001-0.552-0.561c-0.001-3.624-0.001-7.247,0-10.871
					C158.636,417.166,158.64,417.162,159.187,417.162z M182.472,451.579c-3.883,0.001-7.766,0-11.65,0c-3.871,0-7.742,0-11.613,0
					c-0.572,0-0.574-0.002-0.574-0.579c-0.001-1.997-0.001-3.994,0.001-5.991c0-0.464,0.023-0.486,0.478-0.487
					c7.803-0.001,15.607-0.001,23.41,0c0.478,0,0.499,0.02,0.499,0.503c0.002,1.997,0.001,3.994,0,5.991
					C183.024,451.574,183.019,451.579,182.472,451.579z"/>
			</g>
			<g>
				<path style="fill:#FFFFFF;" d="M159.779,440.669v-7.897h2.779c0.375,0,0.726,0.061,1.053,0.182
					c0.327,0.121,0.612,0.292,0.855,0.513c0.242,0.221,0.434,0.483,0.573,0.789c0.14,0.305,0.21,0.642,0.21,1.009
					c0,0.375-0.07,0.715-0.21,1.02c-0.14,0.305-0.331,0.568-0.573,0.789c-0.243,0.221-0.528,0.392-0.855,0.513
					c-0.327,0.121-0.678,0.182-1.053,0.182h-1.29v2.901H159.779z M162.58,436.356c0.39,0,0.684-0.111,0.882-0.331
					c0.199-0.22,0.298-0.474,0.298-0.761c0-0.14-0.024-0.276-0.072-0.408c-0.048-0.132-0.121-0.248-0.221-0.347
					c-0.099-0.099-0.223-0.178-0.37-0.237c-0.147-0.059-0.32-0.089-0.518-0.089h-1.312v2.173H162.58z"/>
				<path style="fill:#FFFFFF;" d="M166.308,432.771h1.731l3.177,5.294h0.088l-0.088-1.522v-3.772h1.478v7.897h-1.566l-3.353-5.592
					h-0.088l0.088,1.522v4.07h-1.467V432.771z"/>
				<path style="fill:#FFFFFF;" d="M177.922,436.334h3.872c0.022,0.089,0.04,0.195,0.055,0.32c0.014,0.125,0.022,0.25,0.022,0.375
					c0,0.507-0.077,0.985-0.231,1.434c-0.154,0.449-0.397,0.849-0.728,1.202c-0.353,0.375-0.776,0.666-1.268,0.871
					c-0.493,0.206-1.055,0.309-1.688,0.309c-0.574,0-1.114-0.103-1.622-0.309c-0.507-0.206-0.948-0.492-1.323-0.86
					c-0.375-0.367-0.673-0.803-0.894-1.307c-0.221-0.504-0.331-1.053-0.331-1.649c0-0.595,0.11-1.145,0.331-1.649
					c0.221-0.504,0.518-0.939,0.894-1.307c0.375-0.367,0.816-0.654,1.323-0.86c0.507-0.206,1.048-0.309,1.622-0.309
					c0.64,0,1.211,0.11,1.715,0.331c0.504,0.221,0.935,0.526,1.296,0.915l-1.025,1.004c-0.258-0.272-0.544-0.48-0.861-0.623
					c-0.316-0.143-0.695-0.215-1.136-0.215c-0.361,0-0.703,0.065-1.026,0.193c-0.324,0.129-0.607,0.311-0.85,0.546
					c-0.242,0.235-0.436,0.52-0.579,0.855c-0.143,0.335-0.215,0.708-0.215,1.119c0,0.412,0.072,0.785,0.215,1.12
					c0.143,0.335,0.338,0.62,0.584,0.855c0.246,0.235,0.531,0.418,0.855,0.546c0.323,0.129,0.669,0.193,1.037,0.193
					c0.419,0,0.773-0.061,1.064-0.182c0.29-0.121,0.538-0.278,0.744-0.469c0.148-0.132,0.275-0.3,0.381-0.502
					c0.106-0.202,0.189-0.428,0.248-0.678h-2.482V436.334z"/>
			</g>
			<g>
				<path style="fill:#FFFFFF;" d="M224.019,431.299c-0.006-1.224-0.959-2.121-2.189-2.14c-0.924-0.014-0.832,0.12-0.834-0.867
					c-0.003-1.097-0.007-2.194,0.003-3.292c0.003-0.379-0.112-0.691-0.362-0.976c-2.342-2.668-4.678-5.342-7.019-8.011
					c-0.12-0.137-0.275-0.244-0.414-0.366c-6.214,0-12.427,0-18.641,0c-0.794,0.293-1.14,0.868-1.138,1.709
					c0.01,3.748,0.004,7.496,0.004,11.243c0,0.556-0.003,0.589-0.55,0.551c-1.497-0.102-2.516,0.986-2.497,2.492
					c0.044,3.476,0.013,6.953,0.014,10.429c0.001,1.58,0.867,2.443,2.45,2.449c0.582,0.002,0.582,0.002,0.582,0.6
					c0,2.219-0.001,4.438,0.001,6.657c0.001,1.192,0.58,1.771,1.768,1.771c8.013,0.001,16.027,0.001,24.04,0
					c1.168,0,1.755-0.583,1.757-1.745c0.002-2.256,0-4.512,0.001-6.768c0-0.512,0.002-0.511,0.52-0.515
					c0.271-0.002,0.541,0.008,0.809-0.058c0.997-0.246,1.69-1.044,1.694-2.069C224.034,438.696,224.036,434.997,224.019,431.299z
					 M195.568,417.162c5.337,0,10.674,0,16.01,0c0.548,0,0.554,0.007,0.554,0.561c0.001,2.243-0.001,4.486,0.001,6.73
					c0.001,0.811,0.249,1.059,1.06,1.059c1.91,0.001,3.821,0,5.731,0.001c0.458,0,0.479,0.021,0.481,0.483
					c0.003,0.887,0.002,1.775,0,2.662c-0.001,0.477-0.024,0.498-0.504,0.499c-3.895,0.001-7.79,0-11.684,0
					c-3.882,0-7.765,0-11.647,0c-0.55,0-0.552-0.001-0.552-0.561c-0.001-3.624-0.001-7.247,0-10.871
					C195.018,417.166,195.022,417.162,195.568,417.162z M218.854,451.579c-3.883,0.001-7.766,0-11.65,0c-3.871,0-7.742,0-11.613,0
					c-0.572,0-0.574-0.002-0.574-0.579c-0.001-1.997-0.001-3.994,0.001-5.991c0-0.464,0.023-0.486,0.478-0.487
					c7.803-0.001,15.607-0.001,23.41,0c0.478,0,0.499,0.02,0.499,0.503c0.002,1.997,0.001,3.994,0,5.991
					C219.406,451.574,219.401,451.579,218.854,451.579z"/>
			</g>
			<g>
				<path style="fill:#FFFFFF;" d="M205.111,432.771h1.699l2.967,7.897h-1.644l-0.651-1.886h-3.044l-0.651,1.886h-1.643
					L205.111,432.771z M206.997,437.415l-0.706-1.974l-0.287-0.96h-0.088l-0.287,0.96l-0.706,1.974H206.997z"/>
				<path style="fill:#FFFFFF;" d="M211.331,434.536c-0.125,0-0.245-0.024-0.359-0.072c-0.114-0.048-0.213-0.114-0.298-0.199
					c-0.084-0.084-0.151-0.182-0.198-0.292c-0.048-0.11-0.072-0.232-0.072-0.364s0.024-0.254,0.072-0.364
					c0.048-0.11,0.114-0.208,0.198-0.292c0.084-0.084,0.184-0.151,0.298-0.198c0.114-0.048,0.233-0.072,0.359-0.072
					c0.257,0,0.478,0.09,0.662,0.27c0.184,0.181,0.276,0.399,0.276,0.656s-0.092,0.476-0.276,0.656
					C211.809,434.446,211.589,434.536,211.331,434.536z M210.615,440.669v-5.404h1.445v5.404H210.615z"/>
			</g>
			<g>
				<path style="fill:#FFFFFF;" d="M261.044,431.299c-0.006-1.224-0.959-2.121-2.189-2.14c-0.924-0.014-0.832,0.12-0.834-0.867
					c-0.003-1.097-0.007-2.194,0.003-3.292c0.003-0.379-0.112-0.691-0.362-0.976c-2.342-2.668-4.678-5.342-7.019-8.011
					c-0.12-0.137-0.275-0.244-0.414-0.366c-6.214,0-12.427,0-18.641,0c-0.794,0.293-1.14,0.868-1.138,1.709
					c0.01,3.748,0.004,7.496,0.004,11.243c0,0.556-0.003,0.589-0.55,0.551c-1.497-0.102-2.516,0.986-2.497,2.492
					c0.044,3.476,0.013,6.953,0.014,10.429c0.001,1.58,0.867,2.443,2.45,2.449c0.582,0.002,0.582,0.002,0.582,0.6
					c0,2.219-0.001,4.438,0.001,6.657c0.001,1.192,0.58,1.771,1.768,1.771c8.013,0.001,16.027,0.001,24.04,0
					c1.168,0,1.755-0.583,1.757-1.745c0.002-2.256,0-4.512,0.001-6.768c0-0.512,0.002-0.511,0.52-0.515
					c0.271-0.002,0.541,0.008,0.809-0.058c0.996-0.246,1.69-1.044,1.694-2.069C261.059,438.696,261.061,434.997,261.044,431.299z
					 M232.593,417.162c5.337,0,10.674,0,16.01,0c0.548,0,0.554,0.007,0.554,0.561c0.001,2.243-0.001,4.486,0.001,6.73
					c0.001,0.811,0.249,1.059,1.06,1.059c1.91,0.001,3.821,0,5.731,0.001c0.458,0,0.479,0.021,0.481,0.483
					c0.003,0.887,0.002,1.775,0,2.662c-0.001,0.477-0.024,0.498-0.504,0.499c-3.895,0.001-7.79,0-11.684,0
					c-3.882,0-7.765,0-11.647,0c-0.55,0-0.552-0.001-0.552-0.561c-0.001-3.624-0.001-7.247,0-10.871
					C232.042,417.166,232.047,417.162,232.593,417.162z M255.878,451.579c-3.883,0.001-7.766,0-11.65,0c-3.871,0-7.742,0-11.613,0
					c-0.572,0-0.574-0.002-0.574-0.579c-0.001-1.997-0.001-3.994,0.001-5.991c0-0.464,0.023-0.486,0.478-0.487
					c7.803-0.001,15.607-0.001,23.41,0c0.478,0,0.499,0.02,0.499,0.503c0.002,1.997,0.001,3.994,0,5.991
					C256.431,451.574,256.426,451.579,255.878,451.579z"/>
			</g>
			<g>
				<path style="fill:#FFFFFF;" d="M236.361,440.845c-0.338,0-0.662-0.048-0.971-0.143c-0.309-0.095-0.592-0.239-0.849-0.43
					c-0.257-0.191-0.481-0.425-0.673-0.7c-0.191-0.276-0.342-0.597-0.452-0.965l1.401-0.551c0.103,0.397,0.283,0.726,0.54,0.987
					c0.257,0.261,0.596,0.392,1.015,0.392c0.154,0,0.303-0.02,0.447-0.061c0.143-0.04,0.272-0.099,0.386-0.176
					s0.204-0.175,0.27-0.292c0.066-0.118,0.099-0.254,0.099-0.408c0-0.147-0.026-0.279-0.077-0.397
					c-0.051-0.117-0.138-0.227-0.259-0.331c-0.121-0.103-0.28-0.202-0.475-0.298c-0.195-0.095-0.435-0.195-0.722-0.298l-0.485-0.176
					c-0.213-0.073-0.429-0.173-0.645-0.298c-0.217-0.125-0.413-0.276-0.59-0.452c-0.177-0.176-0.322-0.384-0.436-0.623
					c-0.114-0.239-0.171-0.509-0.171-0.81c0-0.309,0.06-0.597,0.182-0.866c0.121-0.268,0.294-0.503,0.518-0.706
					c0.224-0.202,0.492-0.36,0.805-0.474s0.66-0.171,1.042-0.171c0.397,0,0.74,0.053,1.031,0.16
					c0.291,0.107,0.537,0.243,0.739,0.408c0.202,0.165,0.366,0.348,0.491,0.546c0.125,0.199,0.217,0.386,0.276,0.563l-1.312,0.551
					c-0.074-0.221-0.208-0.419-0.402-0.596c-0.195-0.176-0.462-0.265-0.8-0.265c-0.324,0-0.592,0.075-0.805,0.226
					c-0.213,0.151-0.32,0.348-0.32,0.59c0,0.235,0.103,0.436,0.309,0.601c0.206,0.165,0.533,0.325,0.982,0.48l0.497,0.165
					c0.316,0.111,0.605,0.237,0.866,0.381c0.261,0.143,0.485,0.314,0.673,0.513c0.187,0.199,0.331,0.425,0.43,0.678
					c0.1,0.254,0.149,0.546,0.149,0.877c0,0.412-0.083,0.767-0.248,1.064c-0.165,0.298-0.377,0.542-0.634,0.734
					c-0.258,0.191-0.548,0.335-0.872,0.43C236.986,440.797,236.67,440.845,236.361,440.845z"/>
				<path style="fill:#FFFFFF;" d="M239.516,432.771h1.61l1.633,4.754l0.287,1.015h0.088l0.309-1.015l1.699-4.754h1.61l-2.879,7.897
					h-1.566L239.516,432.771z"/>
				<path style="fill:#FFFFFF;" d="M251.097,436.334h3.871c0.022,0.089,0.04,0.195,0.055,0.32c0.015,0.125,0.023,0.25,0.023,0.375
					c0,0.507-0.078,0.985-0.232,1.434c-0.154,0.449-0.397,0.849-0.728,1.202c-0.353,0.375-0.775,0.666-1.268,0.871
					c-0.493,0.206-1.055,0.309-1.688,0.309c-0.574,0-1.114-0.103-1.621-0.309c-0.507-0.206-0.949-0.492-1.324-0.86
					c-0.375-0.367-0.673-0.803-0.894-1.307c-0.22-0.504-0.331-1.053-0.331-1.649c0-0.595,0.11-1.145,0.331-1.649
					c0.221-0.504,0.518-0.939,0.894-1.307c0.375-0.367,0.816-0.654,1.324-0.86c0.507-0.206,1.047-0.309,1.621-0.309
					c0.64,0,1.211,0.11,1.715,0.331c0.504,0.221,0.936,0.526,1.296,0.915l-1.026,1.004c-0.257-0.272-0.544-0.48-0.861-0.623
					c-0.316-0.143-0.694-0.215-1.136-0.215c-0.36,0-0.702,0.065-1.026,0.193c-0.323,0.129-0.607,0.311-0.849,0.546
					c-0.243,0.235-0.436,0.52-0.579,0.855c-0.143,0.335-0.215,0.708-0.215,1.119c0,0.412,0.072,0.785,0.215,1.12
					c0.143,0.335,0.338,0.62,0.585,0.855c0.246,0.235,0.531,0.418,0.854,0.546c0.324,0.129,0.669,0.193,1.037,0.193
					c0.419,0,0.774-0.061,1.064-0.182c0.29-0.121,0.539-0.278,0.745-0.469c0.147-0.132,0.274-0.3,0.38-0.502
					c0.107-0.202,0.189-0.428,0.248-0.678h-2.482V436.334z"/>
			</g>
			<g>
				<path style="fill:#FFFFFF;" d="M297.3,431.299c-0.006-1.224-0.959-2.121-2.189-2.14c-0.924-0.014-0.832,0.12-0.834-0.867
					c-0.003-1.097-0.007-2.194,0.003-3.292c0.003-0.379-0.112-0.691-0.362-0.976c-2.342-2.668-4.678-5.342-7.019-8.011
					c-0.12-0.137-0.275-0.244-0.414-0.366c-6.214,0-12.427,0-18.641,0c-0.794,0.293-1.14,0.868-1.138,1.709
					c0.01,3.748,0.004,7.496,0.004,11.243c0,0.556-0.003,0.589-0.55,0.551c-1.497-0.102-2.516,0.986-2.497,2.492
					c0.044,3.476,0.013,6.953,0.014,10.429c0.001,1.58,0.867,2.443,2.45,2.449c0.582,0.002,0.582,0.002,0.582,0.6
					c0,2.219-0.001,4.438,0.001,6.657c0.001,1.192,0.58,1.771,1.768,1.771c8.013,0.001,16.027,0.001,24.04,0
					c1.168,0,1.755-0.583,1.757-1.745c0.002-2.256,0-4.512,0.001-6.768c0-0.512,0.002-0.511,0.52-0.515
					c0.271-0.002,0.541,0.008,0.809-0.058c0.996-0.246,1.69-1.044,1.694-2.069C297.315,438.696,297.318,434.997,297.3,431.299z
					 M268.85,417.162c5.337,0,10.674,0,16.01,0c0.548,0,0.554,0.007,0.554,0.561c0.001,2.243-0.001,4.486,0.001,6.73
					c0.001,0.811,0.249,1.059,1.06,1.059c1.91,0.001,3.821,0,5.731,0.001c0.458,0,0.479,0.021,0.481,0.483
					c0.003,0.887,0.002,1.775,0,2.662c-0.001,0.477-0.024,0.498-0.504,0.499c-3.895,0.001-7.79,0-11.684,0
					c-3.882,0-7.765,0-11.647,0c-0.55,0-0.552-0.001-0.552-0.561c-0.001-3.624-0.001-7.247,0-10.871
					C268.299,417.166,268.303,417.162,268.85,417.162z M292.135,451.579c-3.883,0.001-7.766,0-11.65,0c-3.871,0-7.742,0-11.613,0
					c-0.572,0-0.574-0.002-0.574-0.579c-0.001-1.997-0.001-3.994,0.001-5.991c0-0.464,0.023-0.486,0.478-0.487
					c7.803-0.001,15.607-0.001,23.41,0c0.478,0,0.499,0.02,0.499,0.503c0.001,1.997,0.001,3.994,0,5.991
					C292.687,451.574,292.682,451.579,292.135,451.579z"/>
			</g>
			<g>
				<path style="fill:#FFFFFF;" d="M272.966,434.183v1.831h3.165v1.412h-3.165v1.831h3.518v1.412h-5.007v-7.897h5.007v1.412H272.966
					z"/>
				<path style="fill:#FFFFFF;" d="M277.852,440.669v-7.897h2.779c0.375,0,0.726,0.061,1.053,0.182
					c0.327,0.121,0.612,0.292,0.855,0.513c0.243,0.221,0.434,0.483,0.574,0.789c0.14,0.305,0.209,0.642,0.209,1.009
					c0,0.375-0.07,0.715-0.209,1.02c-0.14,0.305-0.331,0.568-0.574,0.789c-0.243,0.221-0.528,0.392-0.855,0.513
					c-0.327,0.121-0.678,0.182-1.053,0.182h-1.29v2.901H277.852z M280.653,436.356c0.389,0,0.684-0.111,0.882-0.331
					c0.199-0.22,0.298-0.474,0.298-0.761c0-0.14-0.024-0.276-0.072-0.408c-0.048-0.132-0.121-0.248-0.221-0.347
					c-0.099-0.099-0.222-0.178-0.37-0.237c-0.147-0.059-0.32-0.089-0.518-0.089h-1.312v2.173H280.653z"/>
				<path style="fill:#FFFFFF;" d="M286.797,440.845c-0.338,0-0.662-0.048-0.971-0.143c-0.309-0.095-0.592-0.239-0.849-0.43
					c-0.257-0.191-0.482-0.425-0.673-0.7c-0.191-0.276-0.342-0.597-0.452-0.965l1.401-0.551c0.103,0.397,0.283,0.726,0.541,0.987
					c0.257,0.261,0.595,0.392,1.015,0.392c0.154,0,0.303-0.02,0.447-0.061c0.143-0.04,0.272-0.099,0.386-0.176
					c0.114-0.077,0.204-0.175,0.27-0.292c0.066-0.118,0.1-0.254,0.1-0.408c0-0.147-0.026-0.279-0.077-0.397
					c-0.051-0.117-0.138-0.227-0.259-0.331c-0.121-0.103-0.279-0.202-0.474-0.298c-0.195-0.095-0.436-0.195-0.723-0.298
					l-0.485-0.176c-0.213-0.073-0.428-0.173-0.645-0.298c-0.217-0.125-0.414-0.276-0.59-0.452c-0.176-0.176-0.322-0.384-0.436-0.623
					c-0.114-0.239-0.171-0.509-0.171-0.81c0-0.309,0.061-0.597,0.182-0.866c0.121-0.268,0.294-0.503,0.518-0.706
					c0.224-0.202,0.493-0.36,0.805-0.474c0.312-0.114,0.66-0.171,1.042-0.171c0.397,0,0.741,0.053,1.031,0.16
					c0.29,0.107,0.537,0.243,0.739,0.408c0.202,0.165,0.365,0.348,0.491,0.546c0.125,0.199,0.217,0.386,0.276,0.563l-1.312,0.551
					c-0.074-0.221-0.208-0.419-0.403-0.596c-0.195-0.176-0.462-0.265-0.799-0.265c-0.324,0-0.592,0.075-0.805,0.226
					c-0.213,0.151-0.32,0.348-0.32,0.59c0,0.235,0.103,0.436,0.309,0.601c0.206,0.165,0.533,0.325,0.982,0.48l0.496,0.165
					c0.316,0.111,0.605,0.237,0.866,0.381c0.261,0.143,0.485,0.314,0.673,0.513c0.187,0.199,0.331,0.425,0.43,0.678
					c0.099,0.254,0.149,0.546,0.149,0.877c0,0.412-0.083,0.767-0.248,1.064c-0.165,0.298-0.377,0.542-0.634,0.734
					c-0.258,0.191-0.548,0.335-0.872,0.43C287.422,440.797,287.105,440.845,286.797,440.845z"/>
			</g>
			<g>
				<path style="fill:#FFFFFF;" d="M321.394,439.168l4.004-4.985h-3.827v-1.412h5.559v1.5l-3.96,4.985h4.004v1.412h-5.779V439.168z"
					/>
				<path style="fill:#FFFFFF;" d="M328.409,432.771h1.489v7.897h-1.489V432.771z"/>
				<path style="fill:#FFFFFF;" d="M331.486,440.669v-7.897h2.779c0.375,0,0.726,0.061,1.053,0.182
					c0.327,0.121,0.612,0.292,0.855,0.513s0.434,0.483,0.574,0.789c0.14,0.305,0.209,0.642,0.209,1.009
					c0,0.375-0.07,0.715-0.209,1.02c-0.14,0.305-0.331,0.568-0.574,0.789c-0.243,0.221-0.528,0.392-0.855,0.513
					c-0.327,0.121-0.678,0.182-1.053,0.182h-1.29v2.901H331.486z M334.288,436.356c0.389,0,0.684-0.111,0.882-0.331
					c0.199-0.22,0.298-0.474,0.298-0.761c0-0.14-0.024-0.276-0.072-0.408c-0.048-0.132-0.121-0.248-0.221-0.347
					c-0.099-0.099-0.222-0.178-0.37-0.237c-0.147-0.059-0.32-0.089-0.518-0.089h-1.312v2.173H334.288z"/>
			</g>
		</g>
		<g style="opacity:0.61;">
			<path style="fill:#FFFFFF;" d="M300.133,433.27h9.067v2.242h-9.067V433.27z M300.133,437.136h9.067v2.243h-9.067V437.136z"/>
		</g>
	</g>
	<g style="opacity:0.61;">
		<path style="fill:#FFFFFF;" d="M156.756,478.878h1.607c1.263,0,2.114,0.812,2.114,1.974c0,1.161-0.851,1.973-2.114,1.973h-1.607
			V478.878z M158.34,482.464c1.049,0,1.725-0.665,1.725-1.612c0-0.947-0.677-1.613-1.725-1.613h-1.167v3.225H158.34z"/>
		<path style="fill:#FFFFFF;" d="M165.139,480.851c0-1.15,0.879-2.007,2.075-2.007c1.184,0,2.069,0.851,2.069,2.007
			c0,1.156-0.885,2.007-2.069,2.007C166.019,482.858,165.139,482.002,165.139,480.851z M168.866,480.851
			c0-0.942-0.705-1.635-1.652-1.635c-0.953,0-1.663,0.693-1.663,1.635c0,0.941,0.71,1.635,1.663,1.635
			C168.162,482.486,168.866,481.793,168.866,480.851z"/>
		<path style="fill:#FFFFFF;" d="M179.596,478.878l-1.331,3.947h-0.44l-1.156-3.366l-1.161,3.366h-0.434l-1.331-3.947h0.429
			l1.139,3.394l1.178-3.394h0.389l1.161,3.411l1.156-3.411H179.596z"/>
		<path style="fill:#FFFFFF;" d="M187.731,478.878v3.947h-0.344l-2.537-3.202v3.202h-0.417v-3.947h0.344l2.543,3.203v-3.203H187.731
			z"/>
		<path style="fill:#FFFFFF;" d="M193.093,478.878h0.417v3.586h2.21v0.361h-2.627V478.878z"/>
		<path style="fill:#FFFFFF;" d="M200.061,480.851c0-1.15,0.879-2.007,2.075-2.007c1.184,0,2.069,0.851,2.069,2.007
			c0,1.156-0.885,2.007-2.069,2.007C200.941,482.858,200.061,482.002,200.061,480.851z M203.788,480.851
			c0-0.942-0.705-1.635-1.652-1.635c-0.953,0-1.663,0.693-1.663,1.635c0,0.941,0.71,1.635,1.663,1.635
			C203.083,482.486,203.788,481.793,203.788,480.851z"/>
		<path style="fill:#FFFFFF;" d="M211.636,481.77h-2.199l-0.474,1.054h-0.434l1.804-3.947h0.412l1.804,3.947h-0.44L211.636,481.77z
			 M211.484,481.432l-0.947-2.12l-0.947,2.12H211.484z"/>
		<path style="fill:#FFFFFF;" d="M217.28,478.878h1.607c1.263,0,2.114,0.812,2.114,1.974c0,1.161-0.851,1.973-2.114,1.973h-1.607
			V478.878z M218.864,482.464c1.049,0,1.725-0.665,1.725-1.612c0-0.947-0.677-1.613-1.725-1.613h-1.167v3.225H218.864z"/>
		<path style="fill:#FFFFFF;" d="M234.041,481.77h-2.199l-0.474,1.054h-0.434l1.804-3.947h0.412l1.804,3.947h-0.44L234.041,481.77z
			 M233.889,481.432l-0.947-2.12l-0.947,2.12H233.889z"/>
		<path style="fill:#FFFFFF;" d="M239.685,478.878h0.417v3.586h2.21v0.361h-2.627V478.878z"/>
		<path style="fill:#FFFFFF;" d="M247.082,478.878h0.417v3.586h2.21v0.361h-2.627V478.878z"/>
		<path style="fill:#FFFFFF;" d="M260.449,479.239v1.551h2.041v0.361h-2.041v1.675h-0.417v-3.947h2.706v0.361H260.449z"/>
		<path style="fill:#FFFFFF;" d="M267.678,478.878h0.417v3.947h-0.417V478.878z"/>
		<path style="fill:#FFFFFF;" d="M273.456,478.878h0.417v3.586h2.21v0.361h-2.627V478.878z"/>
		<path style="fill:#FFFFFF;" d="M283.644,482.464v0.361h-2.791v-3.947h2.706v0.361h-2.289v1.404h2.041v0.355h-2.041v1.466H283.644z
			"/>
		<path style="fill:#FFFFFF;" d="M294.672,479.239v1.551h2.041v0.361h-2.041v1.675h-0.417v-3.947h2.706v0.361H294.672z"/>
		<path style="fill:#FFFFFF;" d="M301.5,480.851c0-1.15,0.879-2.007,2.075-2.007c1.184,0,2.069,0.851,2.069,2.007
			c0,1.156-0.885,2.007-2.069,2.007C302.379,482.858,301.5,482.002,301.5,480.851z M305.226,480.851
			c0-0.942-0.705-1.635-1.652-1.635c-0.953,0-1.663,0.693-1.663,1.635c0,0.941,0.71,1.635,1.663,1.635
			C304.522,482.486,305.226,481.793,305.226,480.851z"/>
		<path style="fill:#FFFFFF;" d="M313.351,482.825l-0.902-1.269c-0.102,0.011-0.203,0.017-0.316,0.017h-1.06v1.252h-0.417v-3.947
			h1.477c1.004,0,1.613,0.507,1.613,1.353c0,0.62-0.327,1.054-0.902,1.24l0.964,1.353H313.351z M313.328,480.231
			c0-0.632-0.417-0.992-1.207-0.992h-1.048v1.979h1.048C312.911,481.218,313.328,480.851,313.328,480.231z"/>
		<path style="fill:#FFFFFF;" d="M322.907,478.878v3.947h-0.4v-3.158l-1.551,2.656h-0.197l-1.551-2.639v3.14h-0.4v-3.947h0.344
			l1.714,2.926l1.697-2.926H322.907z"/>
		<path style="fill:#FFFFFF;" d="M330.744,481.77h-2.199l-0.473,1.054h-0.434l1.804-3.947h0.411l1.804,3.947h-0.44L330.744,481.77z
			 M330.592,481.432l-0.947-2.12l-0.947,2.12H330.592z"/>
		<path style="fill:#FFFFFF;" d="M336.957,479.239h-1.387v-0.361h3.192v0.361h-1.387v3.586h-0.417V479.239z"/>
		<path style="fill:#FFFFFF;" d="M343.063,482.346l0.164-0.321c0.282,0.276,0.784,0.479,1.302,0.479c0.739,0,1.06-0.31,1.06-0.699
			c0-1.083-2.43-0.417-2.43-1.877c0-0.581,0.451-1.083,1.455-1.083c0.446,0,0.908,0.13,1.224,0.35l-0.141,0.333
			c-0.338-0.22-0.733-0.327-1.083-0.327c-0.722,0-1.043,0.321-1.043,0.716c0,1.083,2.43,0.429,2.43,1.866
			c0,0.581-0.462,1.077-1.472,1.077C343.937,482.858,343.356,482.65,343.063,482.346z"/>
	</g>
</g>
<g>
</g>
<g>
	<g>
		<g>
			<path d="M96.734,143.083c7.484-7.095,14.675-13.755,21.627-20.656c1.201-1.192,1.317-3.439,2.052-5.148
				c6.033-14.032,11.85-28.164,18.215-42.044c6.074-13.245,9.646-26.464,3.541-40.717c-0.578-1.35-0.526-3.728,0.311-4.695
				c0.704-0.813,3.146-0.734,4.532-0.242c9.75,3.464,19.259,7.698,29.158,10.628c22.162,6.56,40.959,19.514,60.708,30.716
				c2.306,1.308,5.24,2.005,7.909,2.085c8.608,0.259,17.229,0.096,26.555,0.096c0.222-3.416,0.302-7.434,0.826-11.393
				c0.218-1.644,1.039-4.038,2.211-4.497c1.217-0.477,3.701,0.507,4.744,1.657c4.891,5.391,9.374,11.152,14.234,16.573
				c1.472,1.642,3.52,3.105,5.591,3.812c7.542,2.574,15.172,4.906,22.841,7.077c2.18,0.617,4.71,0.894,6.9,0.446
				c26.826-5.488,53.347-3.753,79.564,3.454c5.143,1.414,10.476,3.545,14.654,6.741c6.792,5.194,10.543,12.127,10.475,21.48
				c-0.114,15.618-3.88,29.547-14.787,41.015c-2.14,2.25-1.808,3.74-0.363,6.1c13.053,21.314,22.928,43.973,27.381,68.671
				c4.028,22.345,4.5,44.763,1.208,67.368c-4.915,33.746-17.874,64.049-38.492,90.883c-30.945,40.275-71.658,65.839-121.625,74.822
				c-45.391,8.161-89.112,2.132-130.293-20.069c-43.562-23.484-73.987-58.371-92.175-104.043
				c-6.929-17.4-11.04-35.648-12.552-54.397c-3.615-44.809,7.15-85.987,30.64-124.187c2.724-4.43,2.775-10.581,3.734-15.992
				c0.648-3.658,0.48-7.462,1.16-11.111c0.25-1.344,1.786-3.263,2.917-3.398c1.133-0.136,2.865,1.383,3.671,2.612
				C95.081,138.671,95.8,140.976,96.734,143.083z"/>
			<path d="M299.508,165.77c-0.66,0.942-1.264,2.424-1.748,2.385c-1.706-0.136-3.824-0.291-4.976-1.334
				c-6.353-5.747-11.33-12.458-13.789-20.872c-1.742-5.96-3.93-11.788-5.707-17.739c-0.305-1.022,0.1-2.973,0.82-3.394
				c0.827-0.483,3.036-0.165,3.485,0.543c1.786,2.81,3.783,5.756,4.499,8.925c2.485,10.988,6.624,20.926,15.342,28.509
				C298.272,163.52,298.752,164.659,299.508,165.77z"/>
			<path d="M182.575,88.594c0.661-5.973-2.2-10.992-6.454-15.826c-3.651-4.148-6.624-8.957-9.426-13.748
				c-0.766-1.309,0.163-3.608,0.313-5.453c1.524,0.902,3.447,1.478,4.501,2.765c3.728,4.552,6.909,9.564,10.759,14.001
				c6.026,6.945,7.836,14.868,6.245,23.645c-0.248,1.37-2.173,2.435-3.322,3.641c-0.872-1.276-2.079-2.448-2.521-3.859
				C182.235,92.372,182.575,90.74,182.575,88.594z"/>
			<path d="M107.728,208.758c-1.507-6.703-3.094-13.39-4.445-20.124c-0.244-1.215,0.49-2.626,0.772-3.947
				c1.559,0.67,4.11,0.982,4.503,2.073c1.59,4.412,2.811,9.013,3.597,13.642c0.676,3.982-0.062,8.27,0.987,12.105
				c1.2,4.387,3.789,8.378,5.549,12.635c0.611,1.478,0.548,3.235,0.794,4.865c-1.68-0.124-3.875,0.393-4.957-0.476
				C107.986,224.276,106.579,216.878,107.728,208.758z"/>
			<path d="M162.541,139.188c0.226-2.893,0.144-4.627,0.529-6.25c1.261-5.315,0.282-9.917-3.331-14.156
				c-0.862-1.011-0.389-3.159-0.53-4.784c1.505,0.292,3.408,0.102,4.445,0.96c4.154,3.44,5.737,8.175,5.819,13.48
				c0.09,5.884,0.356,11.772,0.198,17.648c-0.034,1.285-1.535,2.531-2.361,3.795c-1.179-0.962-3.028-1.715-3.404-2.926
				C163.017,144.095,162.83,141.019,162.541,139.188z"/>
			<path d="M257.862,113.385c-0.408,0.628-0.77,1.859-1.499,2.141c-0.934,0.361-2.652,0.403-3.189-0.186
				c-4.311-4.731-8.486-9.591-12.508-14.57c-0.458-0.567-0.068-2.471,0.572-3.086c0.591-0.567,2.564-0.724,3.04-0.221
				c4.512,4.775,8.839,9.725,13.198,14.643C257.677,112.333,257.676,112.739,257.862,113.385z"/>
			<path d="M136.852,150.065c0.831,1.188,2.088,2.156,2.087,3.121c-0.008,5.319,0.892,10.051,5.806,13.241
				c0.644,0.418,1.015,2.509,0.567,3.071c-0.69,0.865-2.264,1.611-3.348,1.476c-5.644-0.702-11.141-13.735-7.919-18.613
				C134.556,151.588,135.531,151.122,136.852,150.065z"/>
			<path d="M134.368,217.48c3.164,5.969,5.593,10.551,8.022,15.134c-1.403,0.419-3.273,1.629-4.131,1.123
				c-4.12-2.429-6.637-6.201-6.637-11.114C131.622,221.365,132.912,220.107,134.368,217.48z"/>
			<path style="fill:#FFFFFF;" d="M420.093,105.668c-3.848-3.286-8.723-5.776-13.546-7.438c-17.103-5.894-35.042-6.673-52.847-6.373
				c-12.841,0.216-25.71,2.118-37.324,8.752c-6.035,3.447-10.874,7.698-12.139,14.794c-1.098,6.16-2.06,12.377-2.528,18.611
				c-0.799,10.65,3.872,18.863,13.54,22.93c8.666,3.646,17.89,6.235,27.099,8.215c5.082,1.093,7.36,3.436,8.314,8.045
				c1.689,8.166,0.65,15.904-3.733,23.041c-2.198,3.58-4.689,6.98-7.048,10.462c0.216,0.471,0.432,0.942,0.648,1.413
				c3.213-1.638,6.684-2.911,9.592-4.978c10.402-7.395,16.125-17.699,17.623-30.304c0.574-4.83,2.726-7.214,7.829-7.353
				c4.559-0.124,9.159-0.767,13.628-1.715c10.737-2.278,21.886-4.831,27.601-15.276c3.813-6.97,6.32-14.977,7.768-22.823
				C425.832,118.826,426.216,110.897,420.093,105.668z M393.945,123.993c0.235-0.245,0.462-0.49,0.656-0.736
				C394.408,123.503,394.18,123.748,393.945,123.993z M392.319,125.727c-0.573-0.522-1.307-0.999-1.944-1.503
				c-0.318-0.252-0.612-0.511-0.848-0.786c0.236,0.275,0.53,0.534,0.848,0.786C391.012,124.728,391.747,125.205,392.319,125.727
				L392.319,125.727z"/>
		</g>
		<g>
			<path style="fill:#E9E10A;" d="M171.62,447.435v-32.609h-13.346c0,0-8.054-1.019-9.073-7.133
				c-1.019-6.114-1.019-17.323-1.019-17.323l-21.399-4.076c0,0-10.19,1.019-11.209-14.266c-1.019-15.285,2.038-68.274,2.038-68.274
				s1.019-17.323,16.304-21.399c0,0-1.732-21.126,16.61-40.487s38.926-43.582,39.945-48.677c0,0-18.342,0-22.418-9.171
				c-4.076-9.171,4.076-14.266,8.152-14.266c0,0-7.133-35.501,14.266-42.717s39.413,15.993,40.087,19.674
				c0,0,2.712,0.624,3.731-1.414c1.019-2.038,22.418-8.152,15.285,14.266c0,0,29.552-5.095,44.837,25.475
				c0,0,15.285,3.057,21.399,16.304c6.114,13.247,0,23.125,0,23.125l28.533,0.312c0,0,15.943-5.161,30.39,0.477
				s13.428,14.809,7.314,22.961c0,0,0.033,18.856-19.345,28.789c-19.378,9.933-48.995,4.838-50.491,4.329
				s-0.276,8.705-12.788,21.217c0,0,8.122,14.933,8.759,15.015c0.637,0.082,2.6,2.402,14.285,2.192c0,0-0.854-12.603,11.53-10.483
				c0,0,4.781-6.361,13.168-6.706l0.284-9.789c0,0,8.103-4.822,30.521-4.822c22.418,0,26.495,4.076,27.514,8.152
				c1.019,4.076-4.711,54.614-4.711,54.614s0.381,2.543-1.877,4.379c-0.752,0.612-0.8,0.62-2.583,1.129
				c-7.133,2.038-32.609,1.019-32.609,1.019s-10.312,0.329-10.251-9.516c0,0-13.725,1.331-16.513-8.333
				c0,0-13.471,3.895-27.491-3.394c0,0-1.268,16.593-2.52,20.347c0,0,23.708,3.165,23.427,26.487c0,0,25.689-5.958,30.376,7.922
				c5.377,15.923-21.485,29.667-39.828,24.572l2.038,35.666c0,0,54.074-18.427,91.235-77.998s27.612-98.642,27.612-98.642
				s-18.983-42.449-22.04-56.716l-14.266,26.495c0,0-4.076,10.19-6.114,8.152c-2.038-2.038-5.095-19.361-6.114-24.456
				c-1.019-5.095-15.055-36.89-21.284-38.825c0,0-17.438,30.673-33.743,26.597s-1.019-21.399,2.038-24.456
				c3.057-3.057,3.057-7.133,3.057-7.133v-10.19c0,0-41.78-7.362-47.384-27.118s0.51-42.175,7.643-47.27l0.674-2.547l-25.128-29.815
				c0,0-4.079,18.096-2.04,24.21c2.038,6.114,1.019,18.342-1.019,17.323c-2.038-1.019-47.894-40.761-77.446-55.027
				s-49.932-17.323-49.932-17.323s5.095,18.572-1.529,34.762c-6.624,16.189-28.023,48.929-26.494,71.792
				c1.529,22.862,1.529,32.724,0,33.398c-1.529,0.674-5.243-0.345-7.462-4.931c-2.219-4.586-21.58-27.004-21.58-27.004
				s-2.038,31.59-5.095,39.742s-5.095,26.495-1.019,47.894s8.152,26.495,3.057,26.495s-9.171-10.19-25.476-17.323
				c0,0,0.657,19.361,5.933,40.251s10.437,41.27,6.837,40.761s-14.201-8.662-14.201-8.662S79.399,406.165,171.62,447.435z"/>
			<path style="fill:#FCA603;" d="M288.807,184.528c0,0-19.361,0-25.475,22.418c-6.114,22.418,13.247,34.647,13.247,34.647
				s-9.171,3.057-8.152,7.133s5.325,1.019,5.325,1.019s32.379-24.456,58.873-19.361c0,0-14.776,15.795,0.51,23.947
				s41.599,0,41.599,0s-4.914,24.456-37.523,24.456s-46.147-10.289-55.682-19.411c0,0-9.535-0.97-27.878,15.335
				c0,0-2.038,2.038-1.019,4.076c1.019,2.038,6.114-2.038,6.114-2.038s10.19,16.304,26.495,15.285s16.304-12.228,17.323-12.228
				s3.057-2.038,3.057,4.076c0,6.114-10.19,16.304-24.456,14.266c0,0,0,4.076,4.076,4.076s8.103,0,8.103,0
				s28.582,57.065-11.16,74.388c0,0-2.038-9.171-18.342-9.171s-25.476,3.057-25.476,3.057s-29.552-16.304-33.628-38.723
				s8.152-22.418,7.133-26.495c-1.019-4.076-7.968,1.364-7.968,1.364s6.298-14.151,0-11.834s-18.442,49.357,24.824,76.788
				c0,0-8.704,7.051-22.97-6.196c-14.266-13.247-18.342-22.418-16.304-57.065c0,0-5.095-4.076-6.114,9.171
				c-1.019,13.247-1.019,30.571,11.209,43.818c12.228,13.247,17.323,14.266,17.323,14.266s-2.038,5.095,3.057,5.095
				c5.095,0,38.723-9.171,48.913-8.152c10.19,1.019,13.68,1.479,14.992,16.025c1.312,14.546,1.312,17.603,1.312,17.603
				s5.161,2.038,11.752,0c6.591-2.038,11.686-3.057,11.686,4.076c0,7.133-3.057,11.209-17.323,15.285
				c-14.266,4.076-21.399-4.076-20.38-15.285c1.019-11.209-1.019-26.495-20.38-25.475s-45.856,9.171-60.122-5.095
				c-14.266-14.266-21.399-39.742-19.361-79.484c0,0,21.399-7.133,25.475-42.799c4.076-35.666,0-55.027,0-55.027
				s5.095-11.209,12.228-12.228c7.133-1.019,36.95-16.863,42.422-25.755C246.141,164.378,271.994,157.524,288.807,184.528z"/>
			
				<ellipse transform="matrix(0.2268 -0.9739 0.9739 0.2268 -51.3778 403.9531)" style="fill:#060502;" cx="228.728" cy="234.335" rx="33.739" ry="25.954"/>
			
				<ellipse transform="matrix(0.258 -0.9661 0.9661 0.258 -56.7447 394.8716)" style="fill:#EEECEE;" cx="228.716" cy="234.38" rx="27.885" ry="21.598"/>
			<path style="fill:#FF8124;" d="M180.791,163.129c0,0,30.571-17.323,40.761-19.361c0,0-11.04-18.066-30.132-12.363
				c-0.346,0.103-0.678,0.243-0.995,0.416C187.616,133.35,175.361,141.406,180.791,163.129z"/>
			<path style="fill:#FF8124;" d="M172.86,176.453c1.787-1.472,4.16-2.009,6.453-1.686c6.721,0.945,25.071,2.458,38.163-6.544
				c16.304-11.209,17.323-21.399,23.437-20.38c6.114,1.019,9.171,8.152-4.076,18.342c-13.247,10.19-25.476,19.361-43.818,21.399
				C176.97,189.368,166.382,181.789,172.86,176.453z"/>
			
				<ellipse transform="matrix(0.0889 -0.996 0.996 0.0889 -24.994 440.305)" style="fill:#060502;" cx="228.188" cy="233.815" rx="19.871" ry="14.853"/>
			<path style="fill:#EEECEE;" d="M295.941,191.661c0,0-17.323,9.171-16.304,23.437s7.133,20.38,7.133,20.38
				s-2.125,4.043-7.176,1.512c-5.052-2.531-14.223-10.683-12.185-29.026C269.446,189.623,293.902,185.547,295.941,191.661z"/>
			<path style="fill:#FCA603;" d="M306.131,322.096c0,0-2.038,9.171,10.19,12.228s16.304,1.019,16.304,1.019
				s-2.038-10.19-9.171-11.209C316.321,323.115,306.131,322.096,306.131,322.096z"/>
			<path style="fill:#FCA603;" d="M346.892,306.81c0,0-13.247,3.057-9.171,6.114s11.209-1.019,11.209-1.019
				S350.968,305.791,346.892,306.81z"/>
			<path style="fill:#FCA603;" d="M347.911,317.001c0,0-11.209-2.038-12.228,3.057c-1.019,5.095,12.228,2.038,13.247,1.019
				S350.968,318.02,347.911,317.001z"/>
			<path style="fill:#FCA603;" d="M343.834,326.172c0,0-9.283-0.362-8.208,4.405c1.075,4.766,13.303,3.747,15.341-0.329
				C353.006,326.172,348.93,325.153,343.834,326.172z"/>
			<path style="fill:#FCA603;" d="M350.968,335.343c0,0-6.114,3.057-9.171,2.038c-3.057-1.019,2.038,6.048,7.643,6.081
				S354.025,335.343,350.968,335.343z"/>
			<path style="fill:#E23622;" d="M270.333,269.633c0,0-8.037,3.809-6.999,5.996c1.038,2.187,15.57,15.308,19.721,10.934
				C287.207,282.189,270.333,269.633,270.333,269.633z"/>
			<path style="fill:#EEECEE;" d="M279.636,264.012c0,0-7.224,1.939-6.16,4.536c1.064,2.597,7.179,6.673,10.236,5.654
				C286.769,273.183,289.826,269.107,279.636,264.012z"/>
			<path style="fill:#EEECEE;" d="M294.533,274.558c-1.288-1.074-2.871-1.784-4.546-1.872c-1.278-0.067-2.724,0.227-3.908,1.676
				c-2.367,2.897,1.709,6.973,6.804,6.973c5.095,0,4.586-4.329,4.586-4.329L294.533,274.558z"/>
			<path style="fill:#EEECEE;" d="M331.606,325.153c0,0-2.038-4.076,1.019-7.133s0.657-5.878-3.747-3.958
				C324.473,315.982,327.53,325.153,331.606,325.153z"/>
			<path style="fill:#EEECEE;" d="M353.454,302.57l5.665,48.058c0,0,5.095,3.057,18.342,3.057s18.342-2.038,18.342-2.038
				l4.964-49.077C400.768,302.57,368.679,313.105,353.454,302.57z"/>
			<path style="fill:#EEECEE;" d="M353.454,297.639c0,0,5.983,5.785,23.657,4.931c17.674-0.855,22.868-7.473,22.868-7.473
				S361.036,288.468,353.454,297.639z"/>
			<path style="fill:#FCA603;" d="M305.112,359.799l-5.095,9.171c0,0,11.209,7.133,11.209,18.342
				c0,11.209-7.133,22.418,10.19,24.456c17.323,2.038,35.666-4.076,35.666-16.304s-18.118-9.549-21.542-8.086
				c-3.424,1.463-9.123,2.868-8.821-1.401S326.002,362.347,305.112,359.799z"/>
			<path style="fill:#FF8124;" d="M148.183,300.696c0,0,9.171,1.019,11.209,1.019c0,0-1.019,55.027,11.209,66.236
				c0,0-10.19,6.772-11.209,7.462c-1.019,0.69-12.228-1.348-12.228-18.671C147.164,339.419,148.183,300.696,148.183,300.696z"/>
			<path style="fill:#FF8124;" d="M143.087,298.658v66.762c0,0,2.038,10.683,10.19,12.721c0,0,2.038,7.133-4.076,6.114
				c-6.114-1.019-20.38-3.057-20.38-3.057s-9.171-1.019-8.152-14.266c1.019-13.247,2.038-62.16,2.038-62.16
				s-1.019-16.304,12.228-17.323C134.935,287.449,138.502,296.111,143.087,298.658z"/>
			<path style="fill:#FF8124;" d="M171.62,373.047c0,0-14.266,6.114-16.304,14.266s1.019,22.418,1.019,22.418s0,1.413,2.548,1.216
				s102.412-2.235,102.412-2.235s0-17.981-10.19-18.671c-10.19-0.69-47.762,1.965-47.762,1.965s-12.869,0.911-21.021-7.241
				S173.149,372.537,171.62,373.047z"/>
			<polygon style="fill:#FF8124;" points="176.715,414.827 176.715,449.473 189.962,454.568 188.943,414.827 			"/>
			<polygon style="fill:#FF8124;" points="230.559,414.827 243.675,414.827 244.99,463.739 230.559,463.739 			"/>
			<polygon style="fill:#FF8124;" points="267.408,428.074 278.617,431.131 280.261,463.739 267.835,463.739 			"/>
			<path style="fill:#FF8124;" d="M309.188,412.788c0,0-5.095,12.228-8.152,12.228l3.057,32.609l14.266-5.095l-3.057-36.685
				C315.302,415.846,310.207,412.788,309.188,412.788z"/>
			<g>
				<path style="fill:#060503;" d="M119.434,225.454c-5.956-2.553-6.917-8.748-6.917-22.584c0-15.182-6.735-19.847-7.022-20.038
					c-0.926-0.617-2.162-0.368-2.793,0.547c-0.633,0.916-0.4,2.179,0.506,2.826c0.053,0.037,5.233,3.887,5.233,16.665
					c0,13.474,0.654,22.587,9.387,26.329c0.262,0.112,0.534,0.166,0.802,0.166c0.791,0,1.543-0.464,1.874-1.236
					C120.948,227.095,120.468,225.897,119.434,225.454z"/>
				<path style="fill:#060503;" d="M142.469,229.405c-2.653-0.53-5.448-6.616-6.586-10.767c-0.299-1.086-1.42-1.725-2.504-1.428
					c-1.085,0.297-1.725,1.416-1.429,2.502c0.566,2.075,3.694,12.485,9.719,13.69c0.135,0.027,0.27,0.04,0.402,0.04
					c0.951,0,1.803-0.67,1.996-1.638C144.288,230.699,143.572,229.626,142.469,229.405z"/>
				<path style="fill:#060503;" d="M178.45,66.451c-6.832-2.562-7.847-13.44-7.856-13.549c-0.096-1.12-1.068-1.942-2.2-1.859
					c-1.122,0.094-1.955,1.079-1.862,2.2c0.046,0.552,1.233,13.554,10.487,17.024c4.969,1.863,6.826,16.07,6.83,24.587
					c0.001,1.125,0.913,2.038,2.038,2.038c1.126,0,2.038-0.913,2.038-2.038C187.924,92.311,187.659,69.905,178.45,66.451z"/>
				<path style="fill:#060503;" d="M167.666,129.037c1.428-6.71,0.874-11.555-1.648-14.4c-2.367-2.673-5.442-2.481-5.789-2.452
					c-1.121,0.1-1.948,1.09-1.849,2.211c0.1,1.121,1.068,1.947,2.211,1.849c0.01,0,1.349-0.065,2.375,1.094
					c0.91,1.026,2.212,3.801,0.713,10.849c-3.433,16.137,3.253,22.218,3.54,22.469c0.384,0.336,0.856,0.501,1.327,0.501
					c0.557,0,1.112-0.23,1.517-0.677c0.746-0.825,0.681-2.109-0.133-2.868C169.878,147.565,164.777,142.617,167.666,129.037z"/>
				<path style="fill:#060503;" d="M145.378,167.221c-5.184-0.648-6.363-12.293-6.367-16.321c-0.001-1.125-0.914-2.037-2.038-2.037
					h-0.001c-1.126,0.001-2.037,0.913-2.037,2.038c0,1.957,0.279,19.157,9.937,20.364c0.086,0.011,0.171,0.016,0.256,0.016
					c1.012,0,1.891-0.754,2.019-1.785C147.287,168.378,146.495,167.36,145.378,167.221z"/>
				<path style="fill:#060503;" d="M244.515,97.622c-0.725-0.863-2.009-0.977-2.871-0.255c-0.864,0.722-0.977,2.008-0.256,2.871
					l12.788,15.279c0.404,0.482,0.982,0.73,1.564,0.73c0.462,0,0.925-0.156,1.307-0.475c0.864-0.722,0.977-2.008,0.256-2.871
					L244.515,97.622z"/>
				<path style="fill:#060503;" d="M298.65,162.707c-0.169-0.118-16.939-11.981-16.604-23.251
					c0.423-14.207-7.953-15.448-8.31-15.494c-1.11-0.139-2.138,0.644-2.281,1.762c-0.143,1.117,0.645,2.138,1.761,2.281
					c0.051,0.006,5.065,0.942,4.756,11.329c-0.401,13.471,17.578,26.18,18.344,26.714c0.355,0.248,0.761,0.367,1.164,0.367
					c0.643,0,1.276-0.304,1.672-0.871C299.798,164.622,299.573,163.352,298.65,162.707z"/>
			</g>
			<path style="fill:#FF9537;" d="M273.522,97.911l-1.019-18.342c0,0-22.418-2.038-23.437-1.019
				C248.047,79.569,269.446,99.949,273.522,97.911z"/>
			<path style="fill:#FF9537;" d="M302.055,85.683l9.171,9.171l7.133-4.076C318.359,90.778,309.188,85.683,302.055,85.683z"/>
			<path style="fill:#FF9537;" d="M412.109,165.167c0,0-25.476,8.152-34.647,7.133l-2.728,9.171c0,0,27.185,37.704,26.166,59.103
				c0,0,13.548-34.135,18.643-33.116c5.095,1.019,4.795,3.564,11.928,28.021c7.133,24.456,11.422,28.533,11.422,28.533
				s-0.213-37.704-9.384-57.065S412.109,165.167,412.109,165.167z"/>
			<polygon style="fill:#FF9537;" points="104.365,151.919 115.574,165.167 114.555,141.729 			"/>
			<path style="fill:#FF9537;" d="M79.908,180.452c0,0-5.095,50.951,4.076,67.255l-22.32-13.372
				C61.664,234.335,63.604,211.022,79.908,180.452z"/>
			<path style="fill:#FF9537;" d="M58.509,257.897l13.247,57.065l-11.209-11.209C60.547,303.753,54.433,264.012,58.509,257.897z"/>
			<path style="fill:#E9E10A;" d="M224.747,416.103c-10.598,0-20.135,0-29.035,0c0,13.178-0.027,25.83,0.064,38.483
				c0.006,0.797,0.801,2.138,1.455,2.299c9.242,2.262,18.524,4.364,27.515,6.44C224.747,446.801,224.747,431.501,224.747,416.103z"
				/>
			<path style="fill:#E9E10A;" d="M249.942,415.313c0,15.534-0.05,30.717,0.123,45.898c0.01,0.917,1.714,2.454,2.777,2.596
				c2.774,0.37,5.63,0.125,8.849,0.125c0-2.532,0.033-4.351-0.005-6.167c-0.234-11.16-0.599-22.318-0.695-33.479
				c-0.093-10.877-0.225-11.08-11.153-8.893C249.69,415.421,249.565,415.567,249.942,415.313z"/>
			<path style="fill:#E9E10A;" d="M303.965,399.528c0.992-6.843,1.542-13.851-2.575-20.299c-3.147-4.928-4.383-5.031-9.031-1.475
				c-1.883,1.44-3.972,2.621-5.778,4.145c-0.918,0.774-2.034,2.067-2,3.091c0.174,5.345,0.689,10.68,1.093,16.126
				C292.092,400.558,297.781,400.065,303.965,399.528z"/>
			<path style="fill:#E9E10A;" d="M294.746,429.107c-3.438,0.909-6.094,1.432-8.6,2.362c-1.014,0.376-2.464,1.683-2.416,2.49
				c0.524,8.841,1.304,17.666,2.041,26.827c3.636-0.724,6.525-1.019,9.188-1.958c1.157-0.408,2.701-2.212,2.613-3.26
				C296.857,447.009,295.796,438.481,294.746,429.107z"/>
		</g>
		<g>
			<path d="M323.796,120.251l1.146-12.614l-3.675,0.5h-0.206c-1.059,0-1.588-1.118-1.588-2.323c0-1.382,0.677-2.911,1.94-2.969
				l11.909-1.029c0.912,0,1.352,0.912,1.352,1.941c0,1.352-0.735,2.969-2.147,3.234l-3.323,0.559l0.735,11.908
				c-0.147,1.764-1.97,2.646-3.558,2.646C325.031,122.103,323.796,121.486,323.796,120.251z M333.146,106.225
				c0.528-0.411,0.882-0.97,0.97-1.588l0.029-0.382c0-0.529-0.176-1-0.471-1.411l-0.117-0.029c-0.176,0-0.352,0.117-0.352,0.235
				l0.029,0.059c0.236,0.353,0.353,0.735,0.353,1.117l-0.03,0.323c-0.059,0.529-0.352,0.97-0.764,1.294
				c-0.059,0.029-0.059,0.089-0.059,0.147c0,0.117,0.117,0.265,0.294,0.265L333.146,106.225z M333.381,102.638
				c0.029-0.029,0.029-0.088,0.029-0.117c0-0.089-0.059-0.177-0.146-0.206l-0.117-0.029c-0.118,0-0.236,0.059-0.295,0.147
				l-0.029,0.089c0,0.088,0.059,0.205,0.146,0.235l0.117,0.03C333.205,102.786,333.323,102.726,333.381,102.638z"/>
			<path d="M348.759,103.02l-1.734,16.525c-0.235,1.97-4.94,1.941-5.027,0.617l0.294-4.734l-2.264,0.323l-0.235,4.94
				c-0.412,1.705-5.205,1.941-5.381,0.088l-0.824-17.024c-0.265-1.764,6.381-2.411,6.322-0.588l-0.764,7.851l3.204-0.235
				l0.265-7.469C342.732,101.197,348.613,101.051,348.759,103.02z M343.643,104.285c0-0.117-0.088-0.235-0.206-0.235
				c-0.117,0-0.235,0.088-0.235,0.205l-0.265,3.94c-0.029,0.117,0.059,0.235,0.176,0.235c0.118,0,0.236-0.089,0.236-0.206
				L343.643,104.285z M343.732,103.697c0.029-0.147-0.089-0.264-0.235-0.294c-0.177,0-0.295,0.118-0.323,0.235
				c0,0.147,0.117,0.294,0.264,0.294C343.614,103.932,343.732,103.844,343.732,103.697z"/>
			<path d="M350.231,120.927l0.206-17.024c0.117-1.235,1.97-1.823,3.646-1.823c1.352,0,2.617,0.382,2.705,1.088l-0.882,17.083
				c-0.059,1.235-1.764,1.823-3.293,1.823C351.349,122.074,350.231,121.692,350.231,120.927z M351.583,104.52
				c0-0.147-0.146-0.265-0.294-0.265s-0.294,0.118-0.294,0.265c0,0.147,0.146,0.265,0.294,0.265S351.583,104.667,351.583,104.52z
				 M351.496,109.078v-3.97c0-0.117-0.089-0.206-0.206-0.206s-0.206,0.089-0.206,0.206v3.97c0,0.117,0.089,0.235,0.206,0.235
				S351.496,109.195,351.496,109.078z"/>
			<path d="M364.404,122.074c-0.412,0-0.765-0.029-1.176-0.088c-0.529-0.059-1.059-0.177-1.588-0.294
				c-0.529-0.147-1.029-0.323-1.5-0.529c-1.352-0.529-1.882-1.646-1.882-2.735c0-1.382,0.912-2.763,2.118-2.763
				c0.235,0,0.529,0.059,0.793,0.205c0.295,0.147,0.618,0.294,0.971,0.412c0.352,0.117,0.706,0.235,1.088,0.323
				c0.294,0.059,0.588,0.117,0.912,0.117h0.176c0.529-0.029,1-0.117,1.352-0.294c0.353-0.177,0.529-0.441,0.529-0.794v-0.088
				c0-0.265-0.147-0.47-0.382-0.617l-0.853-0.411l-0.853-0.265c-0.352-0.117-0.735-0.265-1.118-0.441
				c-0.411-0.177-0.823-0.412-1.235-0.677c-0.411-0.264-0.793-0.588-1.117-0.97c-0.353-0.382-0.618-0.823-0.853-1.323
				c-0.206-0.47-0.323-1.058-0.353-1.705v-0.235c0-1,0.176-1.882,0.529-2.676c0.353-0.882,0.882-1.588,1.53-2.205
				c0.647-0.617,1.411-1.058,2.264-1.382c0.852-0.323,1.793-0.5,2.763-0.559l0.764-0.029c1.235,0,1.941,0.235,3.293,0.823
				c1.265,0.735,1.823,1.97,1.823,3.087c0,1.323-0.823,2.499-2.205,2.499c-0.265,0-0.558-0.059-0.882-0.147
				c-1.294-0.588-1.411-1.029-2.852-1.029c-0.295,0-0.618,0.029-0.912,0.117c-0.294,0.059-0.529,0.177-0.764,0.323
				c-0.206,0.177-0.323,0.382-0.323,0.676c0,0.118,0.029,0.206,0.146,0.294c0.118,0.059,0.236,0.118,0.383,0.147
				c0.146,0.059,0.323,0.088,0.47,0.088l0.382,0.059c3.353,0.765,6.381,2.264,6.528,6.057v0.411c0,0.941-0.176,1.794-0.5,2.529
				c-0.353,0.853-0.883,1.588-1.588,2.176c-0.677,0.588-1.5,1.029-2.44,1.352c-0.941,0.323-1.97,0.529-3.058,0.559H364.404z
				 M368.402,103.432c0.117-0.03,0.176-0.147,0.176-0.265l-0.029-0.147c-0.03-0.117-0.147-0.176-0.265-0.176l-0.117,0.029
				c-0.118,0.029-0.177,0.147-0.177,0.265l0.03,0.147c0.029,0.117,0.147,0.177,0.265,0.177L368.402,103.432z M371.813,105.932
				c-0.059-0.735-0.352-1.412-0.912-1.97c-0.528-0.559-1.234-0.912-1.969-1c-0.117,0.029-0.176,0.147-0.176,0.294
				c0,0.117,0.059,0.235,0.176,0.265c0.588,0.088,1.118,0.353,1.558,0.823c0.441,0.441,0.706,1,0.764,1.588
				c0.03,0.147,0.147,0.205,0.265,0.205S371.784,106.079,371.813,105.932z"/>
			<path d="M381.958,120.927l0.206-17.024c0.117-1.235,1.97-1.823,3.646-1.823c1.352,0,2.617,0.382,2.705,1.088l-0.882,17.083
				c-0.059,1.235-1.764,1.823-3.293,1.823C383.076,122.074,381.958,121.692,381.958,120.927z M383.31,104.52
				c0-0.147-0.146-0.265-0.294-0.265s-0.294,0.118-0.294,0.265c0,0.147,0.146,0.265,0.294,0.265S383.31,104.667,383.31,104.52z
				 M383.223,109.078v-3.97c0-0.117-0.089-0.206-0.206-0.206s-0.206,0.089-0.206,0.206v3.97c0,0.117,0.089,0.235,0.206,0.235
				S383.223,109.195,383.223,109.078z"/>
			<path d="M396.132,122.074c-0.412,0-0.765-0.029-1.176-0.088c-0.529-0.059-1.059-0.177-1.588-0.294
				c-0.529-0.147-1.029-0.323-1.5-0.529c-1.352-0.529-1.882-1.646-1.882-2.735c0-1.382,0.912-2.763,2.118-2.763
				c0.235,0,0.529,0.059,0.793,0.205c0.295,0.147,0.618,0.294,0.971,0.412c0.352,0.117,0.706,0.235,1.088,0.323
				c0.294,0.059,0.588,0.117,0.912,0.117h0.176c0.529-0.029,1-0.117,1.352-0.294c0.353-0.177,0.529-0.441,0.529-0.794v-0.088
				c0-0.265-0.147-0.47-0.382-0.617l-0.853-0.411l-0.853-0.265c-0.352-0.117-0.734-0.265-1.118-0.441
				c-0.411-0.177-0.823-0.412-1.235-0.677c-0.411-0.264-0.793-0.588-1.117-0.97c-0.353-0.382-0.618-0.823-0.853-1.323
				c-0.206-0.47-0.323-1.058-0.353-1.705v-0.235c0-1,0.177-1.882,0.529-2.676c0.353-0.882,0.882-1.588,1.529-2.205
				c0.648-0.617,1.412-1.058,2.265-1.382c0.852-0.323,1.793-0.5,2.763-0.559l0.764-0.029c1.235,0,1.941,0.235,3.293,0.823
				c1.265,0.735,1.823,1.97,1.823,3.087c0,1.323-0.823,2.499-2.205,2.499c-0.265,0-0.558-0.059-0.882-0.147
				c-1.294-0.588-1.411-1.029-2.852-1.029c-0.295,0-0.618,0.029-0.912,0.117c-0.295,0.059-0.529,0.177-0.764,0.323
				c-0.206,0.177-0.323,0.382-0.323,0.676c0,0.118,0.029,0.206,0.146,0.294c0.118,0.059,0.236,0.118,0.383,0.147
				c0.146,0.059,0.323,0.088,0.47,0.088l0.382,0.059c3.353,0.765,6.381,2.264,6.528,6.057v0.411c0,0.941-0.176,1.794-0.5,2.529
				c-0.353,0.853-0.883,1.588-1.588,2.176c-0.677,0.588-1.5,1.029-2.44,1.352c-0.941,0.323-1.97,0.529-3.058,0.559H396.132z
				 M400.13,103.432c0.117-0.03,0.176-0.147,0.176-0.265l-0.029-0.147c-0.03-0.117-0.147-0.176-0.265-0.176l-0.117,0.029
				c-0.118,0.029-0.177,0.147-0.177,0.265l0.03,0.147c0.029,0.117,0.147,0.177,0.265,0.177L400.13,103.432z M403.54,105.932
				c-0.059-0.735-0.352-1.412-0.911-1.97c-0.529-0.559-1.235-0.912-1.97-1c-0.117,0.029-0.176,0.147-0.176,0.294
				c0,0.117,0.059,0.235,0.176,0.265c0.588,0.088,1.118,0.353,1.558,0.823c0.441,0.441,0.706,1,0.764,1.588
				c0.03,0.147,0.147,0.205,0.265,0.205S403.512,106.079,403.54,105.932z"/>
			<path d="M331.47,143.276l-5.439,0.235c-0.97,0.265-0.734,1.823-0.265,1.764l4.558-0.294c1.793-0.294,2.676,3.94-0.265,4.822
				l-3.998,0.265l-0.206,5.822c-0.235,1.588-5.322,2.147-5.528,0.147l-0.117-16.231c-0.03-0.941,0.558-1.5,1.647-1.646l10.261-0.794
				C334.234,137.66,334.117,142.746,331.47,143.276z M332.558,138.601c-0.147-0.117-0.471,0.147-0.383,0.382
				c0.206,0.441,0.265,1.029,0.177,1.618c-0.117,0.617-0.382,1.176-0.735,1.617c-0.176,0.205,0.03,0.529,0.265,0.382
				c0.471-0.529,0.794-1.206,0.912-1.97C332.94,139.894,332.823,139.189,332.558,138.601z M331.999,138.571
				c0.089,0.059,0.265-0.029,0.323-0.176c0.089-0.147,0.03-0.294-0.088-0.353c-0.089-0.059-0.265,0-0.323,0.147
				C331.852,138.336,331.882,138.513,331.999,138.571z"/>
			<path d="M335.705,156.213l0.206-17.024c0.117-1.235,1.97-1.823,3.646-1.823c1.352,0,2.617,0.382,2.705,1.088l-0.882,17.083
				c-0.059,1.235-1.764,1.823-3.293,1.823C336.823,157.36,335.705,156.978,335.705,156.213z M337.058,139.806
				c0-0.147-0.147-0.265-0.295-0.265s-0.294,0.118-0.294,0.265c0,0.147,0.146,0.265,0.294,0.265S337.058,139.953,337.058,139.806z
				 M336.97,144.364v-3.97c0-0.117-0.089-0.206-0.206-0.206s-0.206,0.089-0.206,0.206v3.97c0,0.117,0.089,0.235,0.206,0.235
				S336.97,144.481,336.97,144.364z"/>
			<path d="M343.144,156.184l0.765-16.583c0.146-1.264,1.735-1.852,3.175-1.852c0.764,0,1.47,0.177,1.882,0.471
				c0.382,0.294,3.998,6.645,4.557,7.586l-0.323-6.616c0.118-1.235,1.942-1.823,3.617-1.823c1.381,0,2.616,0.382,2.735,1.088
				c-0.206,1.735-1.558,15.143-1.853,16.466c-0.441,0.941-1.5,1.323-2.47,1.323c-0.764,0-1.441-0.235-1.735-0.647l-4.293-7.086
				l-0.382,6.998c-0.03,1.264-1.735,1.852-3.293,1.852C344.291,157.36,343.144,156.948,343.144,156.184z M344.497,149.245
				l0.294-3.94c0-0.118-0.089-0.235-0.206-0.235h-0.029c-0.118,0-0.177,0.088-0.206,0.205l-0.295,3.94
				c0,0.117,0.089,0.206,0.206,0.235C344.379,149.451,344.467,149.362,344.497,149.245z M344.908,144.717
				c0-0.147-0.117-0.265-0.265-0.294c-0.146,0-0.294,0.088-0.294,0.235v0.059c0,0.117,0.117,0.205,0.265,0.235
				C344.761,144.952,344.908,144.863,344.908,144.717z"/>
			<path d="M373.225,156.596c-1.706,0.117-11.438,1.558-11.85,0.029c-0.764-2.823-0.764-12.732,0-17.466
				c0.295-1.676,10.262-1.617,12.085-1.764c1.324,0,1.764,4.264-0.823,5.322l-5.587,0.853c-0.441,0.117-0.764,1.323,0.294,1.412
				l3.911-0.323c1.205-0.177,1.265,4.381-0.441,4.263l-3.852,0.441c-0.735,0.294-0.647,1.529,0.147,1.647l6.234-1.118
				C375.665,149.803,375.841,155.89,373.225,156.596z M374.136,151.744c-0.118-0.206-0.559,0.029-0.529,0.323
				c0.117,0.559,0.088,1.235-0.177,1.882c-0.264,0.676-0.706,1.235-1.205,1.646c-0.265,0.206-0.089,0.617,0.206,0.5
				c0.647-0.5,1.176-1.176,1.5-1.999C374.254,153.273,374.312,152.449,374.136,151.744z M373.489,151.538
				c0.117,0.118,0.323,0.059,0.441-0.088c0.117-0.147,0.117-0.353,0-0.441c-0.117-0.089-0.323-0.029-0.441,0.117
				C373.371,151.274,373.371,151.45,373.489,151.538z"/>
			<path d="M377.223,158.683l0.059-1.97c0.118-0.823,1.147-1.206,2.059-1.206c0.734,0,1.411,0.235,1.411,0.706l-0.412,1.941
				c-0.088,0.823-1.058,1.205-1.882,1.205C377.782,159.359,377.223,159.124,377.223,158.683z"/>
			<path d="M382.223,158.683l0.059-1.97c0.118-0.823,1.147-1.206,2.059-1.206c0.734,0,1.411,0.235,1.411,0.706l-0.412,1.941
				c-0.088,0.823-1.058,1.205-1.882,1.205C382.782,159.359,382.223,159.124,382.223,158.683z"/>
			<path d="M387.221,158.683l0.059-1.97c0.118-0.823,1.147-1.206,2.059-1.206c0.734,0,1.411,0.235,1.411,0.706l-0.412,1.941
				c-0.088,0.823-1.058,1.205-1.882,1.205C387.781,159.359,387.221,159.124,387.221,158.683z"/>
		</g>
	</g>
	<path style="fill:#E9E10A;" d="M311.729,281.621c0,0-3.019,10.016-12.354,20.478c0,0,2.552,12.339,8.808,15.467
		c6.256,3.128,8.315-22.47,8.315-22.47L311.729,281.621z"/>
</g>
</svg>
